# Blender 5.0.0
# www.blender.org
mtllib scaffold.mtl
o Cube_Cube.001
v 0.375000 1.000000 0.500000
v 0.375000 1.000000 0.375000
v 0.375000 0.000000 0.500000
v 0.375000 0.000000 0.375000
v 0.250000 1.000000 0.500000
v 0.250000 1.000000 0.375000
v 0.250000 0.000000 0.500000
v 0.250000 0.000000 0.375000
v 0.375000 1.000000 -0.375000
v 0.375000 1.000000 -0.500000
v 0.375000 -0.000000 -0.375000
v 0.375000 -0.000000 -0.500000
v 0.250000 1.000000 -0.375000
v 0.250000 1.000000 -0.500000
v 0.250000 -0.000000 -0.375000
v 0.250000 -0.000000 -0.500000
v -0.250000 1.000000 0.500000
v -0.250000 1.000000 0.375000
v -0.250000 0.000000 0.500000
v -0.250000 0.000000 0.375000
v -0.375000 1.000000 0.500000
v -0.375000 1.000000 0.375000
v -0.375000 0.000000 0.500000
v -0.375000 0.000000 0.375000
v -0.250000 1.000000 -0.375000
v -0.250000 1.000000 -0.500000
v -0.250000 -0.000000 -0.375000
v -0.250000 -0.000000 -0.500000
v -0.375000 1.000000 -0.375000
v -0.375000 1.000000 -0.500000
v -0.375000 -0.000000 -0.375000
v -0.375000 -0.000000 -0.500000
v -0.250000 1.000000 -0.437500
v 0.250000 1.000000 -0.437500
v -0.250000 -0.000000 -0.437500
v 0.250000 -0.000000 -0.437500
v 0.250000 1.000000 0.437500
v -0.250000 1.000000 0.437500
v 0.250000 0.000000 0.437500
v -0.250000 0.000000 0.437500
v 0.312500 1.000000 -0.375000
v 0.312500 1.000000 0.375000
v 0.312500 -0.000000 -0.375000
v 0.312500 0.000000 0.375000
v -0.312500 1.000000 0.375000
v -0.312500 1.000000 -0.375000
v -0.312500 0.000000 0.375000
v -0.312500 -0.000000 -0.375000
v -0.250000 1.000000 -0.437500
v 0.250000 1.000000 -0.437500
v -0.250000 -0.000000 -0.437500
v 0.250000 -0.000000 -0.437500
v 0.250000 1.000000 0.437500
v -0.250000 1.000000 0.437500
v 0.250000 0.000000 0.437500
v -0.250000 0.000000 0.437500
v 0.312500 1.000000 -0.375000
v 0.312500 1.000000 0.375000
v 0.312500 -0.000000 -0.375000
v 0.312500 0.000000 0.375000
v -0.312500 1.000000 0.375000
v -0.312500 1.000000 -0.375000
v -0.312500 0.000000 0.375000
v -0.312500 -0.000000 -0.375000
vn 1.0000 -0.0000 -0.0000
vn -1.0000 -0.0000 -0.0000
vn -0.0000 1.0000 -0.0000
vn -0.0000 -1.0000 -0.0000
vn -0.0000 -0.0000 1.0000
vn -0.0000 -0.0000 -1.0000
vt 0.000000 0.909091
vt 0.090909 0.909091
vt 0.090909 0.181818
vt 0.000000 0.181818
vt 0.090909 1.000000
vt 0.000000 1.000000
vt 0.090909 0.090909
vt 0.000000 0.090909
vt 1.000000 1.000000
vt 0.636364 1.000000
vt 0.636364 0.272727
vt 1.000000 0.272727
vt 0.090909 0.272727
s 1
usemtl m_c7687ec5-17c4-52f8-4282-5c1d7700c222.001
f 2/1/1 1/2/1 3/3/1
f 2/1/1 3/3/1 4/4/1
f 7/4/2 5/1/2 6/2/2
f 7/4/2 6/2/2 8/3/2
f 5/1/3 1/2/3 2/5/3
f 5/1/3 2/5/3 6/6/3
f 4/7/4 3/3/4 7/4/4
f 4/7/4 7/4/4 8/8/4
f 3/3/5 1/2/5 5/1/5
f 3/3/5 5/1/5 7/4/5
f 6/2/6 2/1/6 4/4/6
f 6/2/6 4/4/6 8/3/6
f 10/1/1 9/2/1 11/3/1
f 10/1/1 11/3/1 12/4/1
f 15/4/2 13/1/2 14/2/2
f 15/4/2 14/2/2 16/3/2
f 13/1/3 9/2/3 10/5/3
f 13/1/3 10/5/3 14/6/3
f 12/7/4 11/3/4 15/4/4
f 12/7/4 15/4/4 16/8/4
f 11/3/5 9/2/5 13/1/5
f 11/3/5 13/1/5 15/4/5
f 14/2/6 10/1/6 12/4/6
f 14/2/6 12/4/6 16/3/6
f 18/1/1 17/2/1 19/3/1
f 18/1/1 19/3/1 20/4/1
f 23/4/2 21/1/2 22/2/2
f 23/4/2 22/2/2 24/3/2
f 21/1/3 17/2/3 18/5/3
f 21/1/3 18/5/3 22/6/3
f 20/7/4 19/3/4 23/4/4
f 20/7/4 23/4/4 24/8/4
f 19/3/5 17/2/5 21/1/5
f 19/3/5 21/1/5 23/4/5
f 22/2/6 18/1/6 20/4/6
f 22/2/6 20/4/6 24/3/6
f 26/1/1 25/2/1 27/3/1
f 26/1/1 27/3/1 28/4/1
f 31/4/2 29/1/2 30/2/2
f 31/4/2 30/2/2 32/3/2
f 29/1/3 25/2/3 26/5/3
f 29/1/3 26/5/3 30/6/3
f 28/7/4 27/3/4 31/4/4
f 28/7/4 31/4/4 32/8/4
f 27/3/5 25/2/5 29/1/5
f 27/3/5 29/1/5 31/4/5
f 30/2/6 26/1/6 28/4/6
f 30/2/6 28/4/6 32/3/6
f 33/9/6 34/10/6 36/11/6
f 33/9/6 36/11/6 35/12/6
f 37/9/5 38/10/5 40/11/5
f 37/9/5 40/11/5 39/12/5
f 41/10/1 42/5/1 44/13/1
f 41/10/1 44/13/1 43/11/1
f 45/10/2 46/5/2 48/13/2
f 45/10/2 48/13/2 47/11/2
f 52/11/5 50/10/5 49/9/5
f 52/11/5 49/9/5 51/12/5
f 56/11/6 54/10/6 53/9/6
f 56/11/6 53/9/6 55/12/6
f 60/13/2 58/5/2 57/10/2
f 60/13/2 57/10/2 59/11/2
f 64/13/1 62/5/1 61/10/1
f 64/13/1 61/10/1 63/11/1
